<svg width="1000" height="485" viewBox="0 0 1000 485" fill="none" xmlns="http://www.w3.org/2000/svg"><g clip-path="url(#clip0_53_2)"><path d="M300.558 82.9872C314.3 45.2315 294.523 2.26212 254.393 0.291785C227.987 -1.00466 201.385 2.01694 175.658 9.39404C126.431 23.5097 82.936 52.8473 51.4074 93.2021C19.8788 133.557 1.93496 182.857 0.147724 234.037C-1.63951 285.217 12.8216 335.648 41.4584 378.104C70.0952 420.56 111.438 452.86 159.56 470.375C207.683 487.891 260.115 489.722 309.342 475.606C358.569 461.49 402.064 432.153 433.593 391.798C450.07 370.708 462.837 347.174 471.527 322.206C484.733 284.26 452.301 249.826 412.147 248.424L400.35 248.012C366.711 246.838 339.66 275.695 318.937 302.219C306.326 318.361 288.928 330.096 269.237 335.742C249.546 341.389 228.573 340.656 209.324 333.65C190.075 326.644 173.538 313.724 162.083 296.742C150.629 279.759 144.844 259.587 145.559 239.115C146.274 218.643 153.452 198.923 166.063 182.781C178.674 166.639 196.072 154.904 215.763 149.258C248.119 139.98 285.008 125.709 296.521 94.0794L300.558 82.9872Z" fill="#2D99FF"/><circle cx="757.5" cy="242.5" r="242.5" fill="url(#paint0_linear_53_2)"/></g><defs><linearGradient id="paint0_linear_53_2" x1="515" y1="242.5" x2="1000" y2="242.5" gradientUnits="userSpaceOnUse"><stop stop-color="#2D99FF"/><stop offset="1" stop-color="#2D00FF"/></linearGradient><clipPath id="clip0_53_2"><rect width="1000" height="485" fill="white"/></clipPath></defs></svg>